<svg xmlns="http://www.w3.org/2000/svg" style="background: transparent; background-color: transparent;" xmlns:xlink="http://www.w3.org/1999/xlink" version="1.1" width="841px" height="404px" viewBox="-0.5 -0.5 841 404" content="&lt;mxfile&gt;&lt;diagram id=&quot;s3-cloudfront-mcp&quot; name=&quot;S3 + CloudFront (MCP版)&quot;&gt;7Vldb6M4FP011sy8VOErhUcg0Bmpq1abGXXn0QGHeEtwZJwmnV+/12ATwEm3UjPt7HbUKrKPv32Or+81yInX+yuON6s/WE5KZE/yPXJmyLZtz4NfCTy2gOcooOA0byHrAMzpD6LAiUK3NCf1oKJgrBR0MwQzVlUkEwMMc852w2pLVg5H3eCCGMA8w6WJ3tFcrFo0mE4O+GdCi5Ua2bNVwRrrugqoVzhnux7kJMiJOWOiTa33MSnl1ultadulJ0q7eXFSiec0EFTAmppGD7jcquXNHSTbRfAbl2ybp5xBdwAlAQpmKAhQcomCEPkuShzk2yjyVCJsEfj3ZWXfQ/4MJS6KUhRaKJmi8BL5kUxAhUBvgnjUGyvIHuYdrcS6BMCCZC04uycxKxkHpGIV1IyWtCxHEC5pUUE2g5UTwKMHwgUFykJVsKZ5LoeJdisqyHyDMznmDvQJGGfbKidyUyaye1iuEp3d5dUkLZXXwyPbgb9Ubm9k7r4iRM6F7HuQYuOKsDUR/BGq6FJHbYo6GVoou4PMLicKW/Uk5ioMK2UXXc8H9iGhBHBcDNua8NoQgyI0nKpEFGvSe4g9LSVvCw6pQqY+RvKUEf7JoLi+JyJbqZ1mW1HSCujV53TyxPYWHOeUHMqOiEFXn51STo7rVcezlsg1XpDyltVUUCalsmBCsPURDQm2OSa1nlx70rHskXTkkLjetAtd0r2cR7RhVPaSPEBntdb8Cm9kg/W+kObzAu9q96Jl5ywi84Yas6wjIvNNjWnsJRprFlsRYcjsy6Dgt15erJdup88imc7AaM3Y3rM0455BM5m8g5btHTRSTbjGP4CC4T01tkUzCtTSxbZh67Xl5cdumqb/GXkdlRInNdvyjHzJ5HwiyLapYa0eTWeRnPuGZqp2TktNekfGdXfL6QMW4EpNom0Gknr9e89J/antvgehATlnEdjUfzuB7fDSVNjdHIC7MDX1dUcWUBTG168uq9nMcd34PchKUvJTDJfzirpiODM9eC0nraYbTgsqTVmYZaSu5fUJ+8qZ7OjjTRh/0i1gtK6RKcrW0kGbW1bSDBYbmgEjBAgWChOVgDAQxAvHN7wi4mbxt+RO1vJR6KMIAkSIFyFSPHIANLJsO86UDD90Cv3Q1UxsFMQo8PT4/xa7tFOTUWlT5Ae9WUOYG6HIbQLWBIVdmGvrRKo71M2joIl3/SbwHS0HtrOdv17T6CwfolDrRJzaPxrDcwpOhp2YfoZ5gvWDhf2EaegfOzkW5pnK+k9F1ucITYLR2ZmYfqZzLAD2zxAAE8s4O5+/fr2d95QUjokH4R6I108fY2JJXhBtthgXK1awCpfJAY2G1JMqD+UzlTSeJcvuWyilpSbfeCDps2ooYMDrc/g+SWRrR9H4uUBgXhBVcxjhyZU/yTsnJRb0Yfiw9iISbYPEgU369ue1NHM9d/WiOuav/S85G5LTp20cZL0BcabP3b8l5MWkL4uwsa7trRG/E+rGBPXJ0+HKG5DmGqT1fNX2xXja3JcBAhMdOs3tGKHAV7dsYJ2TPuWWnuTLuvCevCI7f/bIM29XaUwf2VPxl3RIm85l7rtyT2V6tu9nHnUG/K3HXiOZ/d6tBzKHZk1Ot3uWVLrg4hc74J7pmj7Ln/LknSpdNg9FifyQcEbFsA2pBud98ls/XRDxJjYGsocPYE1Z7yOik/wD&lt;/diagram&gt;&lt;/mxfile&gt;"><defs/><g><g><rect x="80" y="0" width="700" height="40" fill="none" stroke="none" pointer-events="all"/></g><g><g transform="translate(-0.5 -0.5)"><switch><foreignObject style="overflow: visible; text-align: left;" pointer-events="none" width="100%" height="100%" requiredFeatures="http://www.w3.org/TR/SVG11/feature#Extensibility"><div xmlns="http://www.w3.org/1999/xhtml" style="display: flex; align-items: unsafe center; justify-content: unsafe center; width: 698px; height: 1px; padding-top: 20px; margin-left: 81px;"><div style="box-sizing: border-box; font-size: 0; text-align: center; color: #232F3E; "><div style="display: inline-block; font-size: 20px; font-family: &quot;Helvetica&quot;; color: light-dark(#232F3E, #bdc7d4); line-height: 1.2; pointer-events: all; font-weight: bold; white-space: normal; word-wrap: normal; ">S3 + CloudFront 静的サイト配信構成</div></div></div></foreignObject><text x="430" y="26" fill="#232F3E" font-family="&quot;Helvetica&quot;" font-size="20px" text-anchor="middle" font-weight="bold">S3 + CloudFront 静的サイト配信構成</text></switch></g></g><g><rect x="0" y="90" width="78" height="78" fill="none" stroke="none" pointer-events="all"/><path d="M 47.22 102.92 C 47.22 97.75 51.5 93.55 56.76 93.55 C 62.02 93.55 66.29 97.75 66.29 102.92 C 66.29 108.08 62.02 112.29 56.76 112.29 C 51.5 112.29 47.22 108.08 47.22 102.92 Z M 67.65 115.41 C 66.51 114.7 65.29 114.11 64.05 113.64 C 67.54 111.31 69.84 107.38 69.84 102.92 C 69.84 95.8 63.97 90 56.76 90 C 49.55 90 43.68 95.8 43.68 102.92 C 43.68 107.37 45.97 111.3 49.45 113.62 C 47.18 114.48 45.05 115.73 43.16 117.34 L 45.47 120.04 C 48.63 117.32 52.63 115.83 56.73 115.83 C 59.92 115.83 63.05 116.73 65.78 118.42 C 70.64 121.44 73.83 126.74 74.37 132.55 L 56.73 132.55 L 56.73 136.09 L 76.23 136.09 C 77.21 136.09 78 135.3 78 134.32 C 78 126.62 74.04 119.37 67.65 115.41 Z M 11.77 102.92 C 11.77 97.75 16.05 93.55 21.31 93.55 C 26.56 93.55 30.84 97.75 30.84 102.92 C 30.84 108.08 26.56 112.29 21.31 112.29 C 16.05 112.29 11.77 108.08 11.77 102.92 Z M 21.27 132.55 L 3.63 132.55 C 4.49 123.18 12.07 115.83 21.27 115.83 C 24.47 115.83 27.6 116.73 30.33 118.42 C 31.1 118.9 31.83 119.44 32.53 120.04 L 34.84 117.35 C 34.01 116.63 33.12 115.98 32.2 115.41 C 31.05 114.7 29.84 114.11 28.59 113.64 C 32.08 111.31 34.39 107.38 34.39 102.92 C 34.39 95.8 28.52 90 21.31 90 C 14.09 90 8.22 95.8 8.22 102.92 C 8.22 107.37 10.52 111.31 14.02 113.63 C 5.85 116.72 0 124.81 0 134.32 C 0 135.3 0.79 136.09 1.77 136.09 L 21.27 136.09 Z M 21.35 164.45 C 22.21 155.09 29.8 147.74 39 147.74 C 42.19 147.74 45.33 148.64 48.06 150.33 C 52.91 153.35 56.1 158.65 56.64 164.45 Z M 29.5 134.83 C 29.5 129.66 33.77 125.45 39.03 125.45 C 44.29 125.45 48.57 129.66 48.57 134.83 C 48.57 139.99 44.29 144.2 39.03 144.2 C 33.77 144.2 29.5 139.99 29.5 134.83 Z M 49.93 147.32 C 48.78 146.61 47.57 146.02 46.32 145.54 C 49.81 143.22 52.11 139.29 52.11 134.83 C 52.11 127.7 46.25 121.91 39.03 121.91 C 31.82 121.91 25.95 127.7 25.95 134.83 C 25.95 139.28 28.25 143.22 31.74 145.54 C 23.58 148.63 17.73 156.72 17.73 166.23 C 17.73 167.21 18.52 168 19.5 168 L 58.5 168 C 59.48 168 60.27 167.21 60.27 166.23 C 60.27 158.53 56.31 151.28 49.93 147.32 Z" fill="#232f3d" stroke="none" pointer-events="all" style="fill: light-dark(rgb(35, 47, 61), rgb(190, 200, 212));"/></g><g><g transform="translate(-0.5 -0.5)"><switch><foreignObject style="overflow: visible; text-align: left;" pointer-events="none" width="100%" height="100%" requiredFeatures="http://www.w3.org/TR/SVG11/feature#Extensibility"><div xmlns="http://www.w3.org/1999/xhtml" style="display: flex; align-items: unsafe flex-start; justify-content: unsafe center; width: 1px; height: 1px; padding-top: 175px; margin-left: 39px;"><div style="box-sizing: border-box; font-size: 0; text-align: center; color: #232F3E; "><div style="display: inline-block; font-size: 12px; font-family: &quot;Helvetica&quot;; color: light-dark(#232F3E, #bdc7d4); line-height: 1.2; pointer-events: all; white-space: nowrap; ">ユーザー<br />(Browser)</div></div></div></foreignObject><text x="39" y="187" fill="#232F3E" font-family="&quot;Helvetica&quot;" font-size="12px" text-anchor="middle">ユーザー
(Browser)</text></switch></g></g><g><rect x="190" y="105" width="78" height="48" fill="none" stroke="none" pointer-events="all"/><path d="M 246.82 139.86 L 240.76 145.91 L 240.76 126.33 L 237.39 126.33 L 237.39 145.72 L 231.6 139.83 L 229.2 142.2 L 237.95 151.09 C 238.26 151.41 238.69 151.59 239.14 151.59 L 239.15 151.59 C 239.59 151.59 240.02 151.41 240.34 151.1 L 249.2 142.24 Z M 226.2 136.38 L 228.58 134 L 219.72 125.14 C 219.41 124.83 218.98 124.65 218.53 124.65 L 218.53 124.65 C 218.08 124.65 217.65 124.83 217.33 125.15 L 208.58 134.04 L 210.98 136.41 L 216.78 130.52 L 216.78 152.94 L 220.15 152.94 L 220.15 130.33 Z M 222.8 152.97 L 234.71 152.98 L 234.71 149.61 L 222.8 149.6 Z M 266.08 138.75 C 266.08 142.94 264.81 146.33 262.3 148.81 C 258.17 152.92 252.18 153 251.71 153 L 251.69 153 L 243.67 152.99 L 243.67 149.62 L 251.7 149.63 C 251.77 149.63 256.75 149.6 259.95 146.41 C 261.78 144.57 262.71 142 262.71 138.75 C 262.71 136.76 262.16 133.78 257.44 130.88 C 254.95 129.36 252.63 128.86 251.75 128.72 C 250.85 128.57 250.24 127.75 250.34 126.86 C 250.04 123.33 248.39 120.86 245.79 120.07 C 243.54 119.39 241.14 120.18 239.65 122.1 C 239.28 122.58 238.69 122.83 238.07 122.73 C 237.46 122.64 236.96 122.23 236.74 121.65 C 235.7 118.85 234.2 116.49 232.27 114.65 C 229.9 112.38 223.38 107.49 214.16 111.22 C 208.88 113.35 204.74 119.48 204.74 125.17 C 204.74 125.8 204.78 126.44 204.86 127.06 C 204.96 127.87 204.46 128.65 203.68 128.88 C 203.62 128.9 203.55 128.92 203.48 128.93 C 200.38 129.71 195.29 132.06 195.29 139.03 C 195.29 144.33 198.32 147.26 200.86 148.78 C 201.73 149.3 202.73 149.58 203.76 149.58 L 214.12 149.59 L 214.12 152.96 L 203.76 152.95 C 202.12 152.95 200.52 152.51 199.13 151.67 C 196.44 150.06 191.92 146.27 191.92 139.03 C 191.92 132.78 195.43 128.01 201.39 126.03 C 201.38 125.74 201.37 125.46 201.37 125.17 C 201.37 118.09 206.33 110.75 212.9 108.09 C 220.56 105 228.67 106.55 234.6 112.22 C 236.34 113.88 237.78 115.88 238.91 118.17 C 241.16 116.54 244.03 116.02 246.77 116.85 C 250.46 117.96 252.95 121.22 253.6 125.66 C 255.5 126.14 257.49 126.96 259.2 128.01 C 263.83 130.85 266.08 134.36 266.08 138.75 Z" fill="#232f3d" stroke="none" pointer-events="all" style="fill: light-dark(rgb(35, 47, 61), rgb(190, 200, 212));"/></g><g><g transform="translate(-0.5 -0.5)"><switch><foreignObject style="overflow: visible; text-align: left;" pointer-events="none" width="100%" height="100%" requiredFeatures="http://www.w3.org/TR/SVG11/feature#Extensibility"><div xmlns="http://www.w3.org/1999/xhtml" style="display: flex; align-items: unsafe flex-start; justify-content: unsafe center; width: 1px; height: 1px; padding-top: 160px; margin-left: 229px;"><div style="box-sizing: border-box; font-size: 0; text-align: center; color: #232F3E; "><div style="display: inline-block; font-size: 12px; font-family: &quot;Helvetica&quot;; color: light-dark(#232F3E, #bdc7d4); line-height: 1.2; pointer-events: all; white-space: nowrap; ">Internet</div></div></div></foreignObject><text x="229" y="172" fill="#232F3E" font-family="&quot;Helvetica&quot;" font-size="12px" text-anchor="middle">Internet</text></switch></g></g><g><path d="M 400 90 L 478 90 L 478 168 L 400 168 Z" fill="#8c4fff" stroke="none" pointer-events="all" style="fill: light-dark(rgb(140, 79, 255), rgb(177, 125, 255));"/><path d="M 455.85 142.51 C 455.85 140.67 454.35 139.17 452.51 139.17 C 450.66 139.17 449.16 140.67 449.16 142.51 C 449.16 144.35 450.66 145.85 452.51 145.85 C 454.35 145.85 455.85 144.35 455.85 142.51 Z M 458.08 142.51 C 458.08 145.58 455.58 148.08 452.51 148.08 C 449.44 148.08 446.94 145.58 446.94 142.51 C 446.94 139.44 449.44 136.94 452.51 136.94 C 455.58 136.94 458.08 139.44 458.08 142.51 Z M 428.29 126.43 C 428.29 124.59 426.79 123.09 424.95 123.09 C 423.11 123.09 421.61 124.59 421.61 126.43 C 421.61 128.27 423.11 129.77 424.95 129.77 C 426.79 129.77 428.29 128.27 428.29 126.43 Z M 430.52 126.43 C 430.52 129.5 428.02 132 424.95 132 C 421.88 132 419.38 129.5 419.38 126.43 C 419.38 123.36 421.88 120.86 424.95 120.86 C 428.02 120.86 430.52 123.36 430.52 126.43 Z M 438.7 108.95 C 438.7 110.79 440.2 112.29 442.04 112.29 C 443.89 112.29 445.38 110.79 445.38 108.95 C 445.38 107.11 443.89 105.61 442.04 105.61 C 440.2 105.61 438.7 107.11 438.7 108.95 Z M 436.47 108.95 C 436.47 105.88 438.97 103.38 442.04 103.38 C 445.11 103.38 447.61 105.88 447.61 108.95 C 447.61 112.02 445.11 114.52 442.04 114.52 C 438.97 114.52 436.47 112.02 436.47 108.95 Z M 467.97 129 C 467.97 118.67 462.43 109.11 453.5 103.94 C 451.9 104.26 450.35 104.7 448.42 105.4 L 447.66 103.31 C 448.67 102.94 449.57 102.65 450.44 102.4 C 446.85 100.85 442.95 100.03 439 100.03 C 437.12 100.03 435.27 100.22 433.46 100.58 C 434.77 101.34 435.93 102.11 437.06 102.96 L 435.71 104.74 C 434.12 103.53 432.47 102.51 430.31 101.38 C 419.36 104.82 411.48 114.47 410.23 125.8 C 412.53 125.34 414.73 125.08 417.18 125.02 L 417.23 127.25 C 414.67 127.31 412.47 127.58 410.06 128.11 C 410.05 128.41 410.03 128.71 410.03 129 C 410.03 138.65 414.8 147.54 422.65 152.9 C 421.25 148.74 420.56 144.81 420.56 140.97 C 420.56 138.79 420.94 136.99 421.33 135.09 C 421.43 134.65 421.52 134.2 421.61 133.73 L 423.8 134.16 C 423.7 134.64 423.61 135.1 423.51 135.54 C 423.12 137.41 422.79 139.02 422.79 140.97 C 422.79 145.33 423.74 149.83 425.69 154.72 C 429.83 156.87 434.31 157.97 439 157.97 C 442.07 157.97 445.07 157.48 447.93 156.54 C 449.05 154.32 449.88 152.24 450.58 149.84 L 452.72 150.46 C 452.21 152.21 451.63 153.8 450.93 155.38 C 452.73 154.57 454.43 153.57 456.03 152.41 C 455.65 151.46 455.23 150.53 454.78 149.61 L 456.77 148.62 C 457.16 149.39 457.51 150.18 457.85 150.98 C 464.3 145.46 467.97 137.54 467.97 129 Z M 470.2 129 C 470.2 138.72 465.78 147.72 458.08 153.68 C 456.17 155.16 454.1 156.39 451.91 157.38 C 450.99 157.8 450.04 158.19 449.07 158.52 C 445.86 159.64 442.47 160.2 439 160.2 C 433.87 160.2 428.78 158.92 424.28 156.51 C 414.11 151.07 407.8 140.53 407.8 129 C 407.8 128.24 407.82 127.65 407.87 127.12 C 408.62 114.1 417.56 102.83 430.09 99.1 C 432.94 98.24 435.94 97.8 439 97.8 C 444.36 97.8 449.63 99.18 454.25 101.79 C 464.09 107.3 470.2 117.73 470.2 129 Z M 436.01 112.8 L 434.54 111.12 C 432.04 113.3 430.1 115.62 427.83 119.11 L 429.7 120.33 C 431.85 117.01 433.68 114.84 436.01 112.8 Z M 432.62 127.25 L 431.9 129.35 C 437.01 131.11 441.48 133.92 445.95 138.18 L 447.49 136.56 C 442.78 132.07 438.05 129.11 432.62 127.25 Z M 447.52 114.14 C 451.7 120.52 454.06 127.52 454.52 134.95 L 452.29 135.09 C 451.85 128.05 449.62 121.41 445.66 115.37 Z" fill="#000000" stroke="none" pointer-events="all" style="fill: light-dark(rgb(0, 0, 0), rgb(237, 237, 237));"/></g><g><g transform="translate(-0.5 -0.5)"><switch><foreignObject style="overflow: visible; text-align: left;" pointer-events="none" width="100%" height="100%" requiredFeatures="http://www.w3.org/TR/SVG11/feature#Extensibility"><div xmlns="http://www.w3.org/1999/xhtml" style="display: flex; align-items: unsafe flex-start; justify-content: unsafe center; width: 1px; height: 1px; padding-top: 175px; margin-left: 439px;"><div style="box-sizing: border-box; font-size: 0; text-align: center; color: #232F3E; "><div style="display: inline-block; font-size: 12px; font-family: &quot;Helvetica&quot;; color: light-dark(#232F3E, #bdc7d4); line-height: 1.2; pointer-events: all; white-space: nowrap; ">Amazon CloudFront<br />Distribution</div></div></div></foreignObject><text x="439" y="187" fill="#232F3E" font-family="&quot;Helvetica&quot;" font-size="12px" text-anchor="middle">Amazon CloudF...</text></switch></g></g><g><path d="M 630 90 L 708 90 L 708 168 L 630 168 Z" fill="#3f8624" stroke="none" pointer-events="all" style="fill: light-dark(rgb(63, 134, 36), rgb(99, 160, 76));"/><path d="M 692.28 132.22 L 692.71 129.21 C 696.66 131.57 696.71 132.55 696.71 132.58 C 696.7 132.58 696.03 133.14 692.28 132.22 Z M 690.12 131.62 C 683.3 129.56 673.8 125.2 669.96 123.39 C 669.96 123.37 669.96 123.36 669.96 123.34 C 669.96 121.86 668.76 120.66 667.28 120.66 C 665.81 120.66 664.61 121.86 664.61 123.34 C 664.61 124.82 665.81 126.02 667.28 126.02 C 667.93 126.02 668.52 125.78 668.98 125.39 C 673.51 127.53 682.93 131.82 689.8 133.85 L 687.08 153.03 C 687.07 153.08 687.07 153.13 687.07 153.18 C 687.07 154.87 679.6 157.97 667.39 157.97 C 655.05 157.97 647.49 154.87 647.49 153.18 C 647.49 153.13 647.49 153.08 647.48 153.03 L 641.81 111.57 C 646.72 114.95 657.29 116.74 667.39 116.74 C 677.48 116.74 688.03 114.96 692.96 111.59 Z M 641.21 107.25 C 641.29 105.78 649.71 100.03 667.39 100.03 C 685.07 100.03 693.5 105.78 693.58 107.25 L 693.58 107.75 C 692.61 111.04 681.69 114.51 667.39 114.51 C 653.07 114.51 642.15 111.02 641.21 107.73 Z M 695.81 107.27 C 695.81 103.41 684.74 97.8 667.39 97.8 C 650.05 97.8 638.98 103.41 638.98 107.27 L 639.08 108.11 L 645.27 153.27 C 645.41 158.32 658.88 160.2 667.39 160.2 C 677.94 160.2 689.15 157.77 689.3 153.27 L 691.97 134.44 C 693.45 134.8 694.68 134.98 695.66 134.98 C 696.98 134.98 697.87 134.66 698.41 134.01 C 698.85 133.49 699.02 132.85 698.89 132.16 C 698.61 130.62 696.77 128.96 693.05 126.83 L 695.69 108.16 Z" fill="#000000" stroke="none" pointer-events="all" style="fill: light-dark(rgb(0, 0, 0), rgb(237, 237, 237));"/></g><g><g transform="translate(-0.5 -0.5)"><switch><foreignObject style="overflow: visible; text-align: left;" pointer-events="none" width="100%" height="100%" requiredFeatures="http://www.w3.org/TR/SVG11/feature#Extensibility"><div xmlns="http://www.w3.org/1999/xhtml" style="display: flex; align-items: unsafe flex-start; justify-content: unsafe center; width: 1px; height: 1px; padding-top: 175px; margin-left: 669px;"><div style="box-sizing: border-box; font-size: 0; text-align: center; color: #232F3E; "><div style="display: inline-block; font-size: 12px; font-family: &quot;Helvetica&quot;; color: light-dark(#232F3E, #bdc7d4); line-height: 1.2; pointer-events: all; white-space: nowrap; ">Amazon S3<br />(Private Bucket)</div></div></div></foreignObject><text x="669" y="187" fill="#232F3E" font-family="&quot;Helvetica&quot;" font-size="12px" text-anchor="middle">Amazon S3...</text></switch></g></g><g><path d="M 400 290 L 478 290 L 478 368 L 400 368 Z" fill="#dd344c" stroke="none" pointer-events="all" style="fill: light-dark(rgb(221, 52, 76), rgb(255, 127, 147));"/><path d="M 410.47 330.11 L 407.8 330.11 L 407.8 327.89 L 410.47 327.89 C 410.7 322.25 412.52 316.89 415.83 312.31 L 417.64 313.62 C 414.61 317.81 412.92 322.72 412.7 327.89 L 415.6 327.89 L 415.6 330.11 L 412.7 330.11 C 412.91 335.31 414.59 340.25 417.64 344.46 L 415.83 345.77 C 412.51 341.17 410.68 335.78 410.47 330.11 Z M 455.73 352.21 C 451.14 355.53 445.77 357.35 440.11 357.57 L 440.11 360.2 L 437.89 360.2 L 437.89 357.57 C 432.23 357.35 426.85 355.53 422.27 352.21 L 423.58 350.4 C 427.78 353.44 432.71 355.13 437.89 355.34 L 437.89 352.4 L 440.11 352.4 L 440.11 355.34 C 445.29 355.13 450.22 353.44 454.42 350.4 Z M 422.27 305.87 C 426.85 302.56 432.23 300.73 437.89 300.51 L 437.89 297.8 L 440.11 297.8 L 440.11 300.51 C 445.77 300.73 451.14 302.56 455.73 305.87 L 454.42 307.68 C 450.22 304.64 445.29 302.96 440.11 302.74 L 440.11 305.6 L 437.89 305.6 L 437.89 302.74 C 432.71 302.96 427.78 304.64 423.58 307.68 Z M 470.2 327.89 L 470.2 330.11 L 467.53 330.11 C 467.32 335.78 465.49 341.17 462.17 345.77 L 460.36 344.46 C 463.41 340.25 465.09 335.31 465.3 330.11 L 462.4 330.11 L 462.4 327.89 L 465.3 327.89 C 465.07 322.72 463.39 317.81 460.36 313.62 L 462.17 312.31 C 465.47 316.89 467.3 322.25 467.52 327.89 Z M 455.68 310.78 L 464.42 302.05 L 465.99 303.62 L 457.26 312.36 Z M 422.31 347.3 L 413.58 356.04 L 412 354.46 L 420.74 345.73 Z M 424.8 316.37 L 408.26 299.84 L 409.83 298.26 L 426.37 314.8 Z M 453.16 341.58 L 469.74 358.16 L 468.16 359.74 L 451.58 343.16 Z M 429.71 329.82 C 429.79 329.67 429.89 329.52 429.98 329.37 C 431.85 326.43 431.32 322.41 430.72 319.99 C 432.33 321.04 433.77 323.22 434.27 324.14 C 434.48 324.53 434.89 324.76 435.34 324.72 C 435.78 324.69 436.15 324.4 436.3 323.98 C 437.96 319.27 437.12 315.73 435.95 313.43 C 437.37 314.25 438.46 315.44 439.19 316.96 C 440.77 320.24 440.42 324.72 438.27 328.67 C 435.34 334.05 435.93 339.7 436.6 342.74 C 434.93 342.02 433.44 341.21 432.15 340.31 C 428.78 337.96 427.71 333.35 429.71 329.82 Z M 444.68 329.44 C 444.6 329.9 444.82 330.35 445.22 330.58 C 445.61 330.82 446.12 330.78 446.48 330.49 C 446.57 330.42 448.39 328.91 449.28 325.26 C 450.34 326.81 451.46 329.94 449.98 335.69 C 448.51 341.38 441.54 342.98 439.05 343.37 C 438.45 341.22 437.24 335.24 440.23 329.73 C 442.36 325.82 442.92 321.4 441.86 317.75 C 443.87 320.12 445.58 323.84 444.68 329.44 Z M 427.77 328.72 C 425.21 333.25 426.57 339.14 430.88 342.14 C 432.83 343.5 435.19 344.68 437.9 345.65 C 438.02 345.69 438.15 345.71 438.27 345.71 C 438.3 345.71 438.32 345.7 438.34 345.7 L 438.34 345.71 C 438.81 345.67 449.95 344.71 452.13 336.25 C 454.94 325.36 449.31 322.14 449.07 322 C 448.75 321.83 448.35 321.82 448.02 321.99 C 447.69 322.17 447.47 322.49 447.43 322.87 C 447.35 323.62 447.23 324.29 447.08 324.88 C 446.31 316.34 439.53 312.86 438.16 312.24 C 436.76 311.16 435.05 310.43 433.07 310.07 C 432.58 309.98 432.08 310.24 431.87 310.7 C 431.66 311.16 431.78 311.7 432.17 312.03 C 432.33 312.17 435.81 315.18 434.81 320.91 C 433.52 319.21 431.46 317.17 429.04 317.17 C 428.67 317.17 428.33 317.35 428.12 317.65 C 427.91 317.95 427.87 318.34 428 318.68 C 428.02 318.74 430.3 324.73 428.1 328.18 C 427.98 328.36 427.87 328.54 427.77 328.72 Z" fill="#000000" stroke="none" pointer-events="all" style="fill: light-dark(rgb(0, 0, 0), rgb(237, 237, 237));"/></g><g><g transform="translate(-0.5 -0.5)"><switch><foreignObject style="overflow: visible; text-align: left;" pointer-events="none" width="100%" height="100%" requiredFeatures="http://www.w3.org/TR/SVG11/feature#Extensibility"><div xmlns="http://www.w3.org/1999/xhtml" style="display: flex; align-items: unsafe flex-start; justify-content: unsafe center; width: 1px; height: 1px; padding-top: 375px; margin-left: 439px;"><div style="box-sizing: border-box; font-size: 0; text-align: center; color: #232F3E; "><div style="display: inline-block; font-size: 12px; font-family: &quot;Helvetica&quot;; color: light-dark(#232F3E, #bdc7d4); line-height: 1.2; pointer-events: all; white-space: nowrap; ">AWS WAF<br />Web ACL</div></div></div></foreignObject><text x="439" y="387" fill="#232F3E" font-family="&quot;Helvetica&quot;" font-size="12px" text-anchor="middle">AWS WAF...</text></switch></g></g><g><rect x="540" y="285" width="300" height="80" rx="6.4" ry="6.4" fill="#fff2ef" stroke="#dd344c" stroke-width="2" pointer-events="all" style="fill: light-dark(rgb(255, 242, 239), rgb(36, 25, 22)); stroke: light-dark(rgb(221, 52, 76), rgb(255, 127, 147));"/></g><g><g transform="translate(-0.5 -0.5)"><switch><foreignObject style="overflow: visible; text-align: left;" pointer-events="none" width="100%" height="100%" requiredFeatures="http://www.w3.org/TR/SVG11/feature#Extensibility"><div xmlns="http://www.w3.org/1999/xhtml" style="display: flex; align-items: unsafe center; justify-content: unsafe center; width: 298px; height: 1px; padding-top: 325px; margin-left: 541px;"><div style="box-sizing: border-box; font-size: 0; text-align: center; color: #232F3E; "><div style="display: inline-block; font-size: 11px; font-family: &quot;Helvetica&quot;; color: light-dark(#232F3E, #bdc7d4); line-height: 1.2; pointer-events: all; white-space: normal; word-wrap: normal; "><b>Origin Access Control (OAC)</b><br />Bucket Policy: CloudFront のみ s3:GetObject 許可<br /><font color="#DD344C" style="color: light-dark(rgb(221, 52, 76), rgb(255, 127, 147));">✕ ユーザーからの直接アクセス不可</font></div></div></div></foreignObject><text x="690" y="328" fill="#232F3E" font-family="&quot;Helvetica&quot;" font-size="11px" text-anchor="middle">Origin Access Control (OAC)...</text></switch></g></g><g><path d="M 78 129 L 181.69 129" fill="none" stroke="#232f3e" stroke-width="2" stroke-miterlimit="10" pointer-events="stroke" style="stroke: light-dark(rgb(35, 47, 62), rgb(189, 199, 212));"/><path d="M 189.69 129 L 181.69 133 L 181.69 125 Z" fill="#232f3e" stroke="#232f3e" stroke-width="2" stroke-miterlimit="10" pointer-events="all" style="fill: light-dark(rgb(35, 47, 62), rgb(189, 199, 212)); stroke: light-dark(rgb(35, 47, 62), rgb(189, 199, 212));"/></g><g><g transform="translate(-0.5 -0.5)"><switch><foreignObject style="overflow: visible; text-align: left;" pointer-events="none" width="100%" height="100%" requiredFeatures="http://www.w3.org/TR/SVG11/feature#Extensibility"><div xmlns="http://www.w3.org/1999/xhtml" style="display: flex; align-items: unsafe center; justify-content: unsafe center; width: 1px; height: 1px; padding-top: 129px; margin-left: 135px;"><div style="box-sizing: border-box; font-size: 0; text-align: center; color: #232F3E; background-color: #ffffff; "><div style="display: inline-block; font-size: 11px; font-family: &quot;Helvetica&quot;; color: light-dark(#232F3E, #bdc7d4); line-height: 1.2; pointer-events: all; background-color: light-dark(#ffffff, var(--ge-dark-color, #121212)); white-space: nowrap; ">HTTPS リクエスト</div></div></div></foreignObject><text x="135" y="132" fill="#232F3E" font-family="&quot;Helvetica&quot;" font-size="11px" text-anchor="middle">HTTPS リクエスト</text></switch></g></g><g><path d="M 266.08 129 L 389.76 129" fill="none" stroke="#232f3e" stroke-width="2" stroke-miterlimit="10" pointer-events="stroke" style="stroke: light-dark(rgb(35, 47, 62), rgb(189, 199, 212));"/><path d="M 397.76 129 L 389.76 133 L 389.76 125 Z" fill="#232f3e" stroke="#232f3e" stroke-width="2" stroke-miterlimit="10" pointer-events="all" style="fill: light-dark(rgb(35, 47, 62), rgb(189, 199, 212)); stroke: light-dark(rgb(35, 47, 62), rgb(189, 199, 212));"/></g><g><g transform="translate(-0.5 -0.5)"><switch><foreignObject style="overflow: visible; text-align: left;" pointer-events="none" width="100%" height="100%" requiredFeatures="http://www.w3.org/TR/SVG11/feature#Extensibility"><div xmlns="http://www.w3.org/1999/xhtml" style="display: flex; align-items: unsafe center; justify-content: unsafe center; width: 1px; height: 1px; padding-top: 129px; margin-left: 333px;"><div style="box-sizing: border-box; font-size: 0; text-align: center; color: #232F3E; background-color: #ffffff; "><div style="display: inline-block; font-size: 11px; font-family: &quot;Helvetica&quot;; color: light-dark(#232F3E, #bdc7d4); line-height: 1.2; pointer-events: all; background-color: light-dark(#ffffff, var(--ge-dark-color, #121212)); white-space: nowrap; ">CloudFront URL (.cloudfront.net)</div></div></div></foreignObject><text x="333" y="132" fill="#232F3E" font-family="&quot;Helvetica&quot;" font-size="11px" text-anchor="middle">CloudFront URL (.cloudfront.net)</text></switch></g></g><g><path d="M 478 129 L 619.76 129" fill="none" stroke="#232f3e" stroke-width="2" stroke-miterlimit="10" pointer-events="stroke" style="stroke: light-dark(rgb(35, 47, 62), rgb(189, 199, 212));"/><path d="M 627.76 129 L 619.76 133 L 619.76 125 Z" fill="#232f3e" stroke="#232f3e" stroke-width="2" stroke-miterlimit="10" pointer-events="all" style="fill: light-dark(rgb(35, 47, 62), rgb(189, 199, 212)); stroke: light-dark(rgb(35, 47, 62), rgb(189, 199, 212));"/></g><g><g transform="translate(-0.5 -0.5)"><switch><foreignObject style="overflow: visible; text-align: left;" pointer-events="none" width="100%" height="100%" requiredFeatures="http://www.w3.org/TR/SVG11/feature#Extensibility"><div xmlns="http://www.w3.org/1999/xhtml" style="display: flex; align-items: unsafe center; justify-content: unsafe center; width: 1px; height: 1px; padding-top: 129px; margin-left: 554px;"><div style="box-sizing: border-box; font-size: 0; text-align: center; color: #232F3E; background-color: #ffffff; "><div style="display: inline-block; font-size: 11px; font-family: &quot;Helvetica&quot;; color: light-dark(#232F3E, #bdc7d4); line-height: 1.2; pointer-events: all; background-color: light-dark(#ffffff, var(--ge-dark-color, #121212)); white-space: nowrap; ">GetObject (OAC 認証)</div></div></div></foreignObject><text x="554" y="132" fill="#232F3E" font-family="&quot;Helvetica&quot;" font-size="11px" text-anchor="middle">GetObject (OAC 認証)</text></switch></g></g><g><path d="M 439 290 L 439 168" fill="none" stroke="#dd344c" stroke-width="1.5" stroke-miterlimit="10" stroke-dasharray="4.5 4.5" pointer-events="stroke" style="stroke: light-dark(rgb(221, 52, 76), rgb(255, 127, 147));"/></g><g><g transform="translate(-0.5 -0.5)"><switch><foreignObject style="overflow: visible; text-align: left;" pointer-events="none" width="100%" height="100%" requiredFeatures="http://www.w3.org/TR/SVG11/feature#Extensibility"><div xmlns="http://www.w3.org/1999/xhtml" style="display: flex; align-items: unsafe center; justify-content: unsafe center; width: 1px; height: 1px; padding-top: 229px; margin-left: 439px;"><div style="box-sizing: border-box; font-size: 0; text-align: center; color: #DD344C; background-color: #ffffff; "><div style="display: inline-block; font-size: 11px; font-family: &quot;Helvetica&quot;; color: light-dark(#DD344C, #ff7f93); line-height: 1.2; pointer-events: all; background-color: light-dark(#ffffff, var(--ge-dark-color, #121212)); white-space: nowrap; ">Web ACL 関連付け</div></div></div></foreignObject><text x="439" y="232" fill="#DD344C" font-family="&quot;Helvetica&quot;" font-size="11px" text-anchor="middle">Web ACL 関連付け</text></switch></g></g><g><path d="M 690 285 L 690 236.5 Q 690 226.5 680 226.5 L 674.5 226.5 Q 669 226.5 669 216.5 L 669 171.35" fill="none" stroke="#dd344c" stroke-width="1.5" stroke-miterlimit="10" stroke-dasharray="4.5 4.5" pointer-events="stroke" style="stroke: light-dark(rgb(221, 52, 76), rgb(255, 127, 147));"/><path d="M 672.75 177.18 L 669 169.68 L 665.25 177.18" fill="none" stroke="#dd344c" stroke-width="1.5" stroke-miterlimit="10" pointer-events="all" style="stroke: light-dark(rgb(221, 52, 76), rgb(255, 127, 147));"/></g><g><g transform="translate(-0.5 -0.5)"><switch><foreignObject style="overflow: visible; text-align: left;" pointer-events="none" width="100%" height="100%" requiredFeatures="http://www.w3.org/TR/SVG11/feature#Extensibility"><div xmlns="http://www.w3.org/1999/xhtml" style="display: flex; align-items: unsafe center; justify-content: unsafe center; width: 1px; height: 1px; padding-top: 227px; margin-left: 680px;"><div style="box-sizing: border-box; font-size: 0; text-align: center; color: #DD344C; background-color: #ffffff; "><div style="display: inline-block; font-size: 11px; font-family: &quot;Helvetica&quot;; color: light-dark(#DD344C, #ff7f93); line-height: 1.2; pointer-events: all; background-color: light-dark(#ffffff, var(--ge-dark-color, #121212)); white-space: nowrap; ">アクセス制御</div></div></div></foreignObject><text x="680" y="230" fill="#DD344C" font-family="&quot;Helvetica&quot;" font-size="11px" text-anchor="middle">アクセス制御</text></switch></g></g></g><switch><g requiredFeatures="http://www.w3.org/TR/SVG11/feature#Extensibility"/><a transform="translate(0,-5)" xlink:href="https://www.drawio.com/doc/faq/svg-export-text-problems" target="_blank"><text text-anchor="middle" font-size="10px" x="50%" y="100%">Text is not SVG - cannot display</text></a></switch></svg>