<svg xmlns="http://www.w3.org/2000/svg" width="900" height="430" viewBox="0 0 900 430" role="img" aria-labelledby="title desc">
  <title id="title">S3単体 静的ウェブサイトホスティング構成</title>
  <desc id="desc">ユーザーがHTTPでS3ウェブサイトエンドポイントへアクセスし、パブリック読み取りを許可したS3バケットから静的ファイルを取得する構成図。</desc>
  <defs>
    <marker id="arrow" markerWidth="10" markerHeight="10" refX="8" refY="3" orient="auto" markerUnits="strokeWidth">
      <path d="M0,0 L0,6 L9,3 z" fill="#232F3E"/>
    </marker>
    <style>
      text { font-family: Arial, "Hiragino Sans", "Yu Gothic", sans-serif; fill: #232F3E; }
      .title { font-size: 22px; font-weight: 700; }
      .label { font-size: 12px; }
      .note { font-size: 13px; font-weight: 700; fill: #D13212; }
      .box-title { font-size: 14px; font-weight: 700; }
      .box-text { font-size: 12px; }
    </style>
  </defs>
  <rect width="900" height="430" fill="#ffffff"/>
  <text class="title" x="450" y="56" text-anchor="middle">S3単体 静的ウェブサイトホスティング構成</text>

  <g transform="translate(80 35)">
    <rect x="0" y="90" width="78" height="78" fill="none" stroke="none" pointer-events="all"/>
    <path d="M 47.22 102.92 C 47.22 97.75 51.5 93.55 56.76 93.55 C 62.02 93.55 66.29 97.75 66.29 102.92 C 66.29 108.08 62.02 112.29 56.76 112.29 C 51.5 112.29 47.22 108.08 47.22 102.92 Z M 67.65 115.41 C 66.51 114.7 65.29 114.11 64.05 113.64 C 67.54 111.31 69.84 107.38 69.84 102.92 C 69.84 95.8 63.97 90 56.76 90 C 49.55 90 43.68 95.8 43.68 102.92 C 43.68 107.37 45.97 111.3 49.45 113.62 C 47.18 114.48 45.05 115.73 43.16 117.34 L 45.47 120.04 C 48.63 117.32 52.63 115.83 56.73 115.83 C 59.92 115.83 63.05 116.73 65.78 118.42 C 70.64 121.44 73.83 126.74 74.37 132.55 L 56.73 132.55 L 56.73 136.09 L 76.23 136.09 C 77.21 136.09 78 135.3 78 134.32 C 78 126.62 74.04 119.37 67.65 115.41 Z M 11.77 102.92 C 11.77 97.75 16.05 93.55 21.31 93.55 C 26.56 93.55 30.84 97.75 30.84 102.92 C 30.84 108.08 26.56 112.29 21.31 112.29 C 16.05 112.29 11.77 108.08 11.77 102.92 Z M 21.27 132.55 L 3.63 132.55 C 4.48 123.18 12.07 115.83 21.27 115.83 C 24.47 115.83 27.6 116.73 30.33 118.42 C 31.1 118.9 31.83 119.44 32.53 120.04 L 34.84 117.35 C 34.01 116.63 33.12 115.98 32.2 115.41 C 31.05 114.7 29.84 114.11 28.59 113.64 C 32.08 111.31 34.39 107.38 34.39 102.92 C 34.39 95.8 28.52 90 21.31 90 C 14.09 90 8.22 95.8 8.22 102.92 C 8.22 107.37 10.52 111.31 14.02 113.63 C 5.85 116.72 0 124.81 0 134.32 C 0 135.3 0.79 136.09 1.77 136.09 L 21.27 136.09 Z M 21.35 164.45 C 22.21 155.09 29.8 147.74 39 147.74 C 42.19 147.74 45.33 148.64 48.06 150.33 C 52.91 153.35 56.1 158.65 56.64 164.45 Z M 29.5 134.83 C 29.5 129.66 33.77 125.45 39.03 125.45 C 44.29 125.45 48.57 129.66 48.57 134.83 C 48.57 139.99 44.29 144.2 39.03 144.2 C 33.77 144.2 29.5 139.99 29.5 134.83 Z M 49.93 147.32 C 48.78 146.61 47.57 146.02 46.32 145.54 C 49.81 143.22 52.11 139.29 52.11 134.83 C 52.11 127.7 46.25 121.91 39.03 121.91 C 31.82 121.91 25.95 127.7 25.95 134.83 C 25.95 139.28 28.25 143.22 31.74 145.54 C 23.58 148.63 17.73 156.72 17.73 166.23 C 17.73 167.21 18.52 168 19.5 168 L 58.5 168 C 59.48 168 60.27 167.21 60.27 166.23 C 60.27 158.53 56.31 151.28 49.93 147.32 Z" fill="#232f3d" stroke="none" pointer-events="all"/>
  </g>
  <text class="label" x="119" y="220" text-anchor="middle">ユーザー</text>
  <text class="label" x="119" y="237" text-anchor="middle">Browser</text>

  <g transform="translate(120 35)">
    <rect x="170" y="105" width="78" height="48" fill="none" stroke="none" pointer-events="all"/>
    <path d="M 226.82 139.86 L 220.76 145.91 L 220.76 126.33 L 217.39 126.33 L 217.39 145.72 L 211.6 139.83 L 209.2 142.2 L 217.95 151.09 C 218.26 151.41 218.69 151.59 219.14 151.59 L 219.15 151.59 C 219.59 151.59 220.02 151.41 220.34 151.1 L 229.2 142.24 Z M 206.2 136.38 L 208.58 134 L 199.72 125.14 C 199.41 124.83 198.98 124.65 198.53 124.65 L 198.53 124.65 C 198.08 124.65 197.65 124.83 197.33 125.15 L 188.58 134.04 L 190.98 136.41 L 196.78 130.52 L 196.78 152.94 L 200.15 152.94 L 200.15 130.33 Z M 202.8 152.97 L 214.71 152.98 L 214.71 149.61 L 202.8 149.6 Z M 246.08 138.75 C 246.08 142.94 244.81 146.33 242.3 148.81 C 238.17 152.92 232.18 153 231.71 153 L 231.69 153 L 223.67 152.99 L 223.67 149.62 L 231.7 149.63 C 231.77 149.63 236.75 149.6 239.95 146.41 C 241.78 144.57 242.71 142 242.71 138.75 C 242.71 136.76 242.16 133.78 237.44 130.88 C 234.95 129.36 232.63 128.86 231.75 128.72 C 230.85 128.57 230.24 127.75 230.34 126.86 C 230.04 123.33 228.39 120.86 225.79 120.07 C 223.54 119.39 221.14 120.18 219.65 122.1 C 219.28 122.58 218.69 122.83 218.07 122.73 C 217.46 122.64 216.96 122.23 216.74 121.65 C 215.7 118.85 214.2 116.49 212.27 114.65 C 209.9 112.38 203.38 107.49 194.16 111.22 C 188.88 113.35 184.74 119.48 184.74 125.17 C 184.74 125.8 184.78 126.44 184.86 127.06 C 184.96 127.87 184.46 128.65 183.68 128.88 C 183.62 128.9 183.55 128.92 183.48 128.93 C 180.38 129.71 175.29 132.06 175.29 139.03 C 175.29 144.33 178.32 147.26 180.86 148.78 C 181.73 149.3 182.73 149.58 183.76 149.58 L 194.12 149.59 L 194.12 152.96 L 183.76 152.95 C 182.12 152.95 180.52 152.51 179.13 151.67 C 176.44 150.06 171.92 146.27 171.92 139.03 C 171.92 132.78 175.43 128.01 181.39 126.03 C 181.38 125.74 181.37 125.46 181.37 125.17 C 181.37 118.09 186.33 110.75 192.9 108.09 C 200.56 105 208.67 106.55 214.6 112.22 C 216.34 113.88 217.78 115.88 218.91 118.17 C 221.16 116.54 224.03 116.02 226.77 116.85 C 230.46 117.96 232.95 121.22 233.6 125.66 C 235.5 126.14 237.49 126.96 239.2 128.01 C 243.83 130.85 246.08 134.36 246.08 138.75 Z" fill="#232f3d" stroke="none" pointer-events="all"/>
  </g>
  <text class="label" x="329" y="205" text-anchor="middle">Internet</text>

  <g transform="translate(-55 35)">
    <path d="M 600 90 L 678 90 L 678 168 L 600 168 Z" fill="#5a6c86" stroke="none" pointer-events="all"/>
    <path d="M 662.28 132.22 L 662.71 129.21 C 666.66 131.57 666.71 132.55 666.71 132.58 C 666.7 132.58 666.03 133.14 662.28 132.22 Z M 660.12 131.62 C 653.3 129.56 643.8 125.2 639.96 123.39 C 639.96 123.37 639.96 123.36 639.96 123.34 C 639.96 121.86 638.76 120.66 637.28 120.66 C 635.81 120.66 634.61 121.86 634.61 123.34 C 634.61 124.82 635.81 126.02 637.28 126.02 C 637.93 126.02 638.52 125.78 638.98 125.39 C 643.51 127.53 652.93 131.82 659.8 133.85 L 657.08 153.03 C 657.07 153.08 657.07 153.13 657.07 153.18 C 657.07 154.87 649.6 157.97 637.39 157.97 C 625.05 157.97 617.49 154.87 617.49 153.18 C 617.49 153.13 617.49 153.08 617.48 153.03 L 611.81 111.57 C 616.72 114.95 627.29 116.74 637.39 116.74 C 647.48 116.74 658.03 114.96 662.96 111.59 Z M 611.21 107.25 C 611.29 105.78 619.71 100.03 637.39 100.03 C 655.07 100.03 663.5 105.78 663.58 107.25 L 663.58 107.75 C 662.61 111.04 651.69 114.51 637.39 114.51 C 623.07 114.51 612.15 111.02 611.21 107.73 Z M 665.81 107.27 C 665.81 103.41 654.74 97.8 637.39 97.8 C 620.05 97.8 608.98 103.41 608.98 107.27 L 609.08 108.11 L 615.27 153.27 C 615.41 158.32 628.88 160.2 637.39 160.2 C 647.94 160.2 659.15 157.77 659.3 153.27 L 661.97 134.44 C 663.45 134.8 664.68 134.98 665.66 134.98 C 666.98 134.98 667.87 134.66 668.41 134.01 C 668.85 133.49 669.02 132.85 668.89 132.16 C 668.61 130.62 666.77 128.96 663.05 126.83 L 665.69 108.16 Z" fill="#000000" stroke="none" pointer-events="all"/>
  </g>
  <text class="label" x="584" y="220" text-anchor="middle">Amazon S3</text>
  <text class="label" x="584" y="237" text-anchor="middle">Public bucket</text>

  <line x1="158" y1="164" x2="290" y2="164" stroke="#232F3E" stroke-width="2" marker-end="url(#arrow)"/>
  <text class="label" x="224" y="153" text-anchor="middle">HTTP request</text>
  <line x1="368" y1="164" x2="545" y2="164" stroke="#232F3E" stroke-width="2" marker-end="url(#arrow)"/>
  <text class="label" x="456" y="153" text-anchor="middle">website endpoint</text>

  <rect x="215" y="265" width="150" height="52" rx="8" fill="#FFF3F3" stroke="#D13212"/>
  <text class="note" x="290" y="287" text-anchor="middle">HTTPS非対応</text>
  <text class="note" x="290" y="306" text-anchor="middle">HTTPで公開</text>

  <rect x="470" y="265" width="230" height="52" rx="8" fill="#F2F3F3" stroke="#879196"/>
  <text class="box-text" x="585" y="287" text-anchor="middle">S3 website endpoint</text>
  <text class="box-text" x="585" y="306" text-anchor="middle">http://&lt;bucket&gt;.s3-website-...</text>

  <rect x="430" y="350" width="320" height="70" rx="8" fill="#FFF7ED" stroke="#FF9900" stroke-width="2"/>
  <text class="box-title" x="590" y="374" text-anchor="middle">Public read</text>
  <text class="box-text" x="590" y="395" text-anchor="middle">Block Public Accessを外す / s3:GetObjectを許可</text>

  <line x1="290" y1="265" x2="290" y2="178" stroke="#D13212" stroke-width="1.5" stroke-dasharray="6 5"/>
  <line x1="585" y1="265" x2="585" y2="203" stroke="#879196" stroke-width="1.5" stroke-dasharray="6 5"/>
  <line x1="590" y1="350" x2="590" y2="203" stroke="#FF9900" stroke-width="1.5" stroke-dasharray="6 5"/>
</svg>
